# xmcd
#
# Track frame offsets:
#	150
#	14871
#	32417
#	53546
#	74018
#	88412
#	107985
#	124736
#	138117
#	154774
#	173199
#	191363
#	208108
#
# Disc length: 2970 seconds
#
# Revision: 1
# Processed by: cddbd v1.4PL0 Copyright (c) Steve Scherf et al.
# Submitted via: EasyCDDAExtractor 5.1.0
#
DISCID=b90b980d
DTITLE=Men Of Distinction - Step It Up And Go
DYEAR=1900
DGENRE=Beach
TTITLE0=Morse Code Of Love
TTITLE1=No Particular Place To Go
TTITLE2=I'm Bad, I'm Nationwide
TTITLE3=Love I Lost, The
TTITLE4=Step It Up And Go
TTITLE5=Georgia
TTITLE6=Sittin On The Boatdock
TTITLE7=Ain't That Loving You Baby
TTITLE8=I Hear You Knockin
TTITLE9=Got To Be Funky
TTITLE10=Golf Pro, The (I Ain't Drunk)
TTITLE11=It Won't Be This Way Always
TTITLE12=Morse Code Of Love [Producers Bonus Track]
EXTD=
EXTT0=
EXTT1=
EXTT2=
EXTT3=
EXTT4=
EXTT5=
EXTT6=
EXTT7=
EXTT8=
EXTT9=
EXTT10=
EXTT11=
EXTT12=
PLAYORDER=
